<svg id="visual" viewBox="0 0 900 600" width="900" height="600" xmlns="http://www.w3.org/2000/svg" xmlns:xlink="http://www.w3.org/1999/xlink" version="1.1"><rect x="0" y="0" width="900" height="600" fill="#001122"></rect><defs><linearGradient id="grad1_0" x1="33.3%" y1="0%" x2="100%" y2="100%"><stop offset="20%" stop-color="#36fe9b" stop-opacity="1"></stop><stop offset="80%" stop-color="#36fe9b" stop-opacity="1"></stop></linearGradient></defs><defs><linearGradient id="grad1_1" x1="33.3%" y1="0%" x2="100%" y2="100%"><stop offset="20%" stop-color="#36fe9b" stop-opacity="1"></stop><stop offset="80%" stop-color="#00c0a9" stop-opacity="1"></stop></linearGradient></defs><defs><linearGradient id="grad1_2" x1="33.3%" y1="0%" x2="100%" y2="100%"><stop offset="20%" stop-color="#008196" stop-opacity="1"></stop><stop offset="80%" stop-color="#00c0a9" stop-opacity="1"></stop></linearGradient></defs><defs><linearGradient id="grad1_3" x1="33.3%" y1="0%" x2="100%" y2="100%"><stop offset="20%" stop-color="#008196" stop-opacity="1"></stop><stop offset="80%" stop-color="#004563" stop-opacity="1"></stop></linearGradient></defs><defs><linearGradient id="grad1_4" x1="33.3%" y1="0%" x2="100%" y2="100%"><stop offset="20%" stop-color="#001122" stop-opacity="1"></stop><stop offset="80%" stop-color="#004563" stop-opacity="1"></stop></linearGradient></defs><defs><linearGradient id="grad2_0" x1="0%" y1="0%" x2="66.7%" y2="100%"><stop offset="20%" stop-color="#36fe9b" stop-opacity="1"></stop><stop offset="80%" stop-color="#36fe9b" stop-opacity="1"></stop></linearGradient></defs><defs><linearGradient id="grad2_1" x1="0%" y1="0%" x2="66.7%" y2="100%"><stop offset="20%" stop-color="#00c0a9" stop-opacity="1"></stop><stop offset="80%" stop-color="#36fe9b" stop-opacity="1"></stop></linearGradient></defs><defs><linearGradient id="grad2_2" x1="0%" y1="0%" x2="66.7%" y2="100%"><stop offset="20%" stop-color="#00c0a9" stop-opacity="1"></stop><stop offset="80%" stop-color="#008196" stop-opacity="1"></stop></linearGradient></defs><defs><linearGradient id="grad2_3" x1="0%" y1="0%" x2="66.7%" y2="100%"><stop offset="20%" stop-color="#004563" stop-opacity="1"></stop><stop offset="80%" stop-color="#008196" stop-opacity="1"></stop></linearGradient></defs><defs><linearGradient id="grad2_4" x1="0%" y1="0%" x2="66.7%" y2="100%"><stop offset="20%" stop-color="#004563" stop-opacity="1"></stop><stop offset="80%" stop-color="#001122" stop-opacity="1"></stop></linearGradient></defs><g transform="translate(900, 0)"><path d="M0 486.7C-45.2 488.9 -90.4 491 -126 470.2C-161.5 449.3 -187.4 405.4 -217 375.9C-246.6 346.3 -280.1 331.2 -305.5 305.5C-330.9 279.7 -348.2 243.4 -362.9 209.5C-377.5 175.6 -389.4 144.2 -409.6 109.7C-429.7 75.2 -458.2 37.6 -486.7 0L0 0Z" fill="#002a43"></path><path d="M0 389.4C-36.2 391.1 -72.4 392.8 -100.8 376.1C-129.2 359.4 -149.9 324.3 -173.6 300.7C-197.3 277.1 -224.1 265 -244.4 244.4C-264.7 223.8 -278.6 194.7 -290.3 167.6C-302 140.5 -311.5 115.4 -327.6 87.8C-343.8 60.2 -366.6 30.1 -389.4 0L0 0Z" fill="#006280"></path><path d="M0 292C-27.1 293.3 -54.3 294.6 -75.6 282.1C-96.9 269.6 -112.4 243.2 -130.2 225.5C-148 207.8 -168 198.7 -183.3 183.3C-198.5 167.8 -208.9 146 -217.7 125.7C-226.5 105.4 -233.6 86.5 -245.7 65.8C-257.8 45.1 -274.9 22.6 -292 0L0 0Z" fill="#00a0a4"></path><path d="M0 194.7C-18.1 195.6 -36.2 196.4 -50.4 188.1C-64.6 179.7 -74.9 162.1 -86.8 150.3C-98.7 138.5 -112 132.5 -122.2 122.2C-132.3 111.9 -139.3 97.3 -145.1 83.8C-151 70.3 -155.7 57.7 -163.8 43.9C-171.9 30.1 -183.3 15 -194.7 0L0 0Z" fill="#00dfa5"></path><path d="M0 97.3C-9 97.8 -18.1 98.2 -25.2 94C-32.3 89.9 -37.5 81.1 -43.4 75.2C-49.3 69.3 -56 66.2 -61.1 61.1C-66.2 55.9 -69.6 48.7 -72.6 41.9C-75.5 35.1 -77.9 28.8 -81.9 21.9C-85.9 15 -91.6 7.5 -97.3 0L0 0Z" fill="#36fe9b"></path></g><g transform="translate(0, 600)"><path d="M0 -486.7C39.9 -473.8 79.8 -460.8 121.1 -452.1C162.5 -443.3 205.4 -438.7 243.4 -421.5C281.4 -404.4 314.5 -374.8 340.1 -340.1C365.7 -305.4 383.7 -265.7 392.3 -226.5C400.9 -187.3 400.2 -148.7 414.4 -111C428.6 -73.4 457.7 -36.7 486.7 0L0 0Z" fill="#002a43"></path><path d="M0 -389.4C31.9 -379 63.8 -368.7 96.9 -361.6C130 -354.6 164.3 -350.9 194.7 -337.2C225.1 -323.5 251.6 -299.8 272.1 -272.1C292.6 -244.3 306.9 -212.5 313.8 -181.2C320.7 -149.9 320.2 -119 331.5 -88.8C342.8 -58.7 366.1 -29.4 389.4 0L0 0Z" fill="#006280"></path><path d="M0 -292C23.9 -284.3 47.9 -276.5 72.7 -271.2C97.5 -266 123.2 -263.2 146 -252.9C168.8 -242.7 188.7 -224.9 204.1 -204.1C219.4 -183.3 230.2 -159.4 235.4 -135.9C240.6 -112.4 240.1 -89.2 248.6 -66.6C257.1 -44 274.6 -22 292 0L0 0Z" fill="#00a0a4"></path><path d="M0 -194.7C16 -189.5 31.9 -184.3 48.5 -180.8C65 -177.3 82.1 -175.5 97.3 -168.6C112.6 -161.8 125.8 -149.9 136 -136C146.3 -122.2 153.5 -106.3 156.9 -90.6C160.4 -74.9 160.1 -59.5 165.8 -44.4C171.4 -29.4 183.1 -14.7 194.7 0L0 0Z" fill="#00dfa5"></path><path d="M0 -97.3C8 -94.8 16 -92.2 24.2 -90.4C32.5 -88.7 41.1 -87.7 48.7 -84.3C56.3 -80.9 62.9 -75 68 -68C73.1 -61.1 76.7 -53.1 78.5 -45.3C80.2 -37.5 80 -29.7 82.9 -22.2C85.7 -14.7 91.5 -7.3 97.3 0L0 0Z" fill="#36fe9b"></path></g></svg>